# AST/ASF file generated using VICON BodyLanguage
# -----------------------------------------------
:version 1.10
:name VICON
:units
  mass 1.0
  length 0.45
  angle deg
:documentation
   .ast/.asf automatically generated from VICON data using
   VICON BodyBuilder and BodyLanguage model FoxedUp or BRILLIANT.MOD
:root
   order TX TY TZ RX RY RZ
   axis XYZ
   position 0 0 0  
   orientation 0 0 0 
:bonedata
  begin
     id 1 
     name lhipjoint
     direction 0.588788 -0.725889 0.355548 
     length 2.37778 
     axis 0 0 0  XYZ
  end
  begin
     id 2 
     name lfemur
     direction 0.34202 -0.939693 0  
     length 6.86393  
     axis 0 0 20  XYZ
    dof rx ry rz
    limits (-160.0 20.0)
           (-70.0 70.0)
           (-60.0 70.0)
  end
  begin
     id 3 
     name ltibia
     direction 0.34202 -0.939693 0   
     length 7.32851   
     axis 0 0 20   XYZ
    dof rx
    limits (-10.0 170.0)
  end
  begin
     id 4 
     name lfoot
     direction 0.0626533 -0.172138 0.983078   
     length 1.98929   
     axis -90 7.62852e-016 20   XYZ
    dof rx rz
    limits (-45.0 90.0)
           (-70.0 20.0)
  end
  begin
     id 5 
     name ltoes
     direction 1.53647e-011 -4.21734e-011 1   
     length 1.00479   
     axis -90 7.62852e-016 20   XYZ
    dof rx
    limits (-90.0 20.0)
  end
  begin
     id 6 
     name rhipjoint
     direction -0.59141 -0.724168 0.354705   
     length 2.38343  
     axis 0 0 0  XYZ 
  end
  begin
     id 7 
     name rfemur
     direction -0.34202 -0.939693 0   
     length 6.95589   
     axis 0 0 -20   XYZ
    dof rx ry rz
    limits (-160.0 20.0)
           (-70.0 70.0)
           (-70.0 60.0)
  end
  begin
     id 8 
     name rtibia
     direction -0.34202 -0.939693 0   
     length 7.32327   
     axis 0 0 -20   XYZ
    dof rx
    limits (-10.0 170.0)
 end
 begin
     id 9 
     name rfoot
     direction -0.0660461 -0.18146 0.981178   
     length 1.85272  
     axis -90 -7.62852e-016 -20   XYZ
    dof rx rz
    limits (-45.0 90.0)
           (-20.0 70.0)
  end
  begin
     id 10 
     name rtoes
     direction -1.53586e-011 -4.21988e-011 1   
     length 0.93746   
     axis -90 -7.62852e-016 -20   XYZ
    dof rx
    limits (-90.0 20.0)
  end
  begin
     id 11 
     name lowerback
     direction -0.0107982 0.991059 0.13299   
     length 1.98691   
     axis 0 0 0   XYZ
    dof rx ry rz
    limits (-20.0 45.0)
           (-30.0 30.0)
           (-30.0 30.0)
  end
  begin
     id 12 
     name upperback
     direction 0.0076296 0.999916 0.0104576   
     length 1.99501   
     axis 0 0 0   XYZ
    dof rx ry rz
    limits (-20.0 45.0)
           (-30.0 30.0)
           (-30.0 30.0)
  end
  begin
     id 13 
     name thorax
     direction 0.01176 0.998615 -0.0512909   
     length 2.03144   
     axis 0 0 0   XYZ
    dof rx ry rz
    limits (-20.0 45.0)
           (-30.0 30.0)
           (-30.0 30.0)
  end
  begin
     id 14 
     name lowerneck
     direction -0.0171909 0.999644 0.0204011   
     length 1.71818   
     axis 0 0 0   XYZ
    dof rx ry rz
    limits (-20.0 45.0)
           (-30.0 30.0)
           (-30.0 30.0)
  end
  begin
     id 15 
     name upperneck
     direction 0.0250902 0.997482 -0.0663316   
     length 1.66199   
     axis 0 0 0   XYZ
    dof rx ry rz
    limits (-20.0 45.0)
           (-30.0 30.0)
           (-30.0 30.0)
  end
  begin
     id 16
     name head
     direction 0.00881535 0.99956 -0.0283365  
     length 1.81545  
     axis 0 0 0   XYZ
    dof rx ry rz
    limits (-20.0 45.0)
           (-30.0 30.0)
           (-30.0 30.0)
  end
  begin
     id 17 
     name lclavicle
     direction 0.840411 0.486876 -0.238035  
     length 3.30409  
     axis 0 0 0   XYZ
    dof ry rz
    limits (-20.0 10.0)
           (0.0 20.0)
  end
  begin
     id 18 
     name lhumerus
     direction 1 -4.48977e-011 -5.16239e-027   
     length 4.62672   
     axis 180 -30 -90   XYZ
    dof rx ry rz
    limits (-60.0 90.0)
           (-90.0 90.0)
           (-90.0 90.0)
  end
  begin
     id 19
     name lradius
     direction 1 -4.48977e-011 -8.71171e-027   
     length 3.11018   
     axis 180 -30 -90   XYZ
    dof rx
    limits (-10.0 170.0)
  end
  begin
     id 20
     name lwrist
     direction 1 -4.48912e-011 -1.03764e-026   
     length 1.55509   
     axis 9.09556e-015 90 90   XYZ
    dof ry
    limits (-180.0 0.0)
 end
  begin
     id 21 
     name lhand
     direction 1 -4.49072e-011 -2.07528e-026   
     length 0.743834   
     axis 1.3242e-014 90 90   XYZ
    dof rx rz
    limits (-90.0 90.0)
           (-45.0 45.0)
  end
  begin
     id 22 
     name lfingers
     direction 1 -4.48909e-011 -4.15056e-026   
     length 0.599698   
     axis 2.64841e-014 90 90   XYZ
    dof rx
    limits (0.0 90.0)
  end
  begin
     id 23
     name lthumb
     direction 0.707107 -6.35013e-011 0.707107   
     length 0.86105   
     axis -90 45 2.85299e-015   XYZ
    dof rx rz
    limits (-45.0 45.0)
           (-45.0 45.0)
  end
  begin
     id 24 
     name rclavicle
     direction -0.835208 0.500237 -0.228452   
     length 3.2716  
     axis 0 0 0   XYZ 
    dof ry rz
    limits (-10.0 20.0)
           (-20.0 0.0)
  end
  begin
     id 25 
     name rhumerus
     direction -1 -4.48978e-011 -5.1953e-028  
     length 4.55919   
     axis 180 30 90   XYZ
    dof rx ry rz
    limits (-90.0 60.0)
           (-90.0 90.0)
           (-90.0 90.0)
  end
  begin
     id 26 
     name rradius
     direction -1 -4.48961e-011 -5.99546e-027   
     length 3.22748   
     axis 180 30 90   XYZ
    dof rx
    limits (-10.0 170.0)
  end
  begin
     id 27 
     name rwrist
     direction -1 -4.48986e-011 -1.03764e-026   
     length 1.61374   
     axis 9.09556e-015 -90 -90   XYZ
    dof ry
    limits (-180.0 0.0)
  end
  begin
     id 28
     name rhand
     direction -1 -4.4899e-011 -2.07528e-026   
     length 0.700882   
     axis 1.3242e-014 -90 -90   XYZ
    dof rx rz
    limits (-90.0 90.0)
           (-45.0 45.0)
  end
  begin
     id 29
     name rfingers
     direction -1 -4.48991e-011 -4.15056e-026   
     length 0.565069   
     axis 2.64841e-014 -90 -90   XYZ
    dof rx
    limits (0.0 90.0)
  end
  begin
     id 30
     name rthumb
     direction -0.707107 -6.34804e-011 0.707107   
     length 0.811329   
     axis -90 -45 -2.85299e-015   XYZ
    dof rx rz
    limits (-45.0 45.0)
           (-45.0 45.0)
  end
:hierarchy
  begin
    root lhipjoint rhipjoint lowerback
    lhipjoint lfemur
    lfemur ltibia
    ltibia lfoot
    lfoot ltoes
    rhipjoint rfemur
    rfemur rtibia
    rtibia rfoot
    rfoot rtoes
    lowerback upperback
    upperback thorax
    thorax lowerneck lclavicle rclavicle
    lowerneck upperneck
    upperneck head
    lclavicle lhumerus
    lhumerus lradius
    lradius lwrist
    lwrist lhand lthumb
    lhand lfingers
    rclavicle rhumerus
    rhumerus rradius
    rradius rwrist
    rwrist rhand rthumb
    rhand rfingers
  end

#!OML:ASF F:\VICON\USERDATA\INSTALL\SteveWalk\SteveWalk.ASF
:FULLY-SPECIFIED
:DEGREES
205
root 1.23844 16.0062 -0.249816 17.7602 7.88109 3.03661
lowerback -15.5546 -4.01361 -3.60465
upperback -4.79199 -4.77056 0.796265
thorax 3.95855 -2.35898 1.96807
lowerneck -4.86953 -1.15309 -0.248813
upperneck 12.003 -1.66255 1.03062
head 4.88628 -0.775468 0.300611
rclavicle 4.07384e-014 9.74045e-015
rhumerus -79.3893 -34.3254 -24.8464
rradius 11.7673
rwrist 39.8789
rhand -11.6461 -34.7089
rfingers 7.12502
rthumb 14.398 -64.1895
lclavicle 4.07384e-014 9.74045e-015
lhumerus -9.96698 -14.4263 80.6119
lradius 52.8764
lwrist 8.70536
lhand -24.3464 -20.7082
lfingers 7.12502
lthumb 2.14285 9.26081
rfemur -50.0445 -8.99829 24.9123
rtibia 15.6523
rfoot -11.8156 5.42539
rtoes -16.7918
lfemur -0.165707 2.82657 -21.7013
ltibia 19.6345
lfoot -22.4315 -11.7675
ltoes -22.6033
206
root 1.24261 15.9713 0.00315983 17.6867 7.85351 2.88144
lowerback -15.6526 -3.92015 -3.16116
upperback -4.79371 -4.71579 0.884441
thorax 3.9796 -2.33119 1.8178
lowerneck -5.09917 -1.11872 -0.254481
upperneck 12.6024 -1.59983 0.859242
head 4.62185 -0.749058 0.218544
rclavicle -9.1969e-015 2.38542e-015
rhumerus -80.7609 -34.6902 -22.1825
rradius 11.5788
rwrist 41.8402
rhand -11.8859 -34.3006
rfingers 7.12502
rthumb 14.167 -63.7976
lclavicle -9.1969e-015 2.38542e-015
lhumerus -10.3436 -14.435 80.7276
lradius 53.7079
lwrist 9.0404
lhand -24.623 -20.7871
lfingers 7.12502
lthumb 1.87568 9.18438
rfemur -50.2251 -8.79398 25.2004
rtibia 17.4554
rfoot -11.2918 3.19195
rtoes -31.8569
lfemur 0.794596 2.38899 -21.3792
ltibia 19.7273
lfoot -21.2545 -12.2631
ltoes -22.7832
207
root 1.24759 15.9575 0.261763 17.6444 7.81038 2.70597
lowerback -15.86 -3.83621 -2.69203
upperback -4.79536 -4.67568 0.985249
thorax 4.05946 -2.31064 1.65685
lowerneck -5.06159 -1.06145 -0.243959
upperneck 12.1351 -1.48812 0.600146
head 4.96886 -0.711469 0.161418
rclavicle 6.20519e-014 -1.11319e-014
rhumerus -82.5026 -35.1827 -18.8165
rradius 11.357
rwrist 44.4118
rhand -12.0839 -33.9899
rfingers 7.12502
rthumb 13.9761 -63.5001
lclavicle 6.20519e-014 -1.11319e-014
lhumerus -10.7425 -14.2631 80.8332
lradius 54.3841
lwrist 9.0064
lhand -24.9763 -20.8546
lfingers 7.12502
lthumb 1.53447 9.1196
rfemur -50.3027 -8.40469 25.2776
rtibia 19.4863
rfoot -9.43733 1.59944
rtoes -41.1897
lfemur 1.75508 2.02357 -21.0453
ltibia 19.7168
lfoot -20.353 -11.9335
ltoes -27.021
208
root 1.25384 15.9603 0.522005 17.6192 7.72262 2.54283
lowerback -16.0847 -3.73528 -2.20547
upperback -4.81462 -4.61845 1.09704
thorax 4.12879 -2.28097 1.50088
lowerneck -5.00919 -1.01783 -0.338286
upperneck 12.1208 -1.40009 0.438105
head 4.95145 -0.681426 0.128357
rclavicle 4.07478e-014 1.59028e-015
rhumerus -84.3819 -35.736 -15.0861
rradius 11.1329
rwrist 47.2629
rhand -12.2436 -34.1397
rfingers 7.12502
rthumb 13.8222 -63.6605
lclavicle 4.07478e-014 1.59028e-015
lhumerus -11.3295 -14.0046 81.0876
lradius 55.0279
lwrist 9.04871
lhand -25.3646 -20.9847
lfingers 7.12502
lthumb 1.15945 8.99186
rfemur -50.5478 -7.92419 25.1554
rtibia 21.6109
rfoot -6.96647 2.02229
rtoes -38.8062
lfemur 2.60686 1.58026 -20.7861
ltibia 19.7777
lfoot -20.1051 -10.5018
ltoes -34.584
209
root 1.25686 15.9749 0.781436 17.6402 7.53733 2.3981
lowerback -16.3224 -3.60851 -1.78767
upperback -4.86555 -4.5187 1.21537
thorax 4.17577 -2.22988 1.39947
lowerneck -5.01766 -1.00743 -0.363288
upperneck 12.6451 -1.34952 0.149349
head 4.6155 -0.672583 0.0320952
rclavicle -2.11333e-014 6.75868e-015
rhumerus -86.0913 -36.1412 -11.6909
rradius 10.953
rwrist 49.8926
rhand -12.2233 -34.2716
rfingers 7.12502
rthumb 13.8418 -63.791
lclavicle -2.11333e-014 6.75868e-015
lhumerus -12.2405 -13.7185 81.391
lradius 55.8492
lwrist 9.36509
lhand -25.5519 -21.1958
lfingers 7.12502
lthumb 0.978549 8.78166
rfemur -50.8855 -7.21594 24.764
rtibia 23.6104
rfoot -4.80579 1.98653
rtoes -26.4708
lfemur 3.02219 0.991988 -20.6134
ltibia 20.3433
lfoot -19.8319 -9.52776
ltoes -39.6356
210
root 1.25738 15.9928 1.03231 17.7453 7.29259 2.23454
lowerback -16.4424 -3.45814 -1.38213
upperback -4.95964 -4.39139 1.36647
thorax 4.11751 -2.16495 1.35343
lowerneck -5.32208 -0.993768 -0.515973
upperneck 12.9583 -1.28674 -0.0714242
head 4.76246 -0.661757 -0.0101104
rclavicle -2.79355e-014 -1.98785e-015
rhumerus -87.6027 -36.5668 -8.57125
rradius 10.7972
rwrist 52.3131
rhand -12.3184 -34.6247
rfingers 7.12502
rthumb 13.7501 -64.1503
lclavicle -2.79355e-014 -1.98785e-015
lhumerus -13.3388 -13.3094 81.8302
lradius 56.7974
lwrist 9.49767
lhand -25.6058 -21.319
lfingers 7.12502
lthumb 0.926475 8.65876
rfemur -51.1334 -6.48858 24.4126
rtibia 25.3388
rfoot -3.38876 1.35069
rtoes -18.1978
lfemur 2.76801 0.4825 -20.4499
ltibia 21.79
lfoot -18.3875 -10.0755
ltoes -40.508
211
root 1.25618 16.0026 1.27653 17.9363 7.08631 1.82238
lowerback -16.5973 -3.32889 -0.728862
upperback -5.07583 -4.33653 1.5975
thorax 4.04604 -2.13558 1.23668
lowerneck -5.45848 -0.909052 -0.468578
upperneck 13.0232 -1.12713 -0.448338
head 4.80265 -0.604076 -0.126033
rclavicle 8.12222e-015 -1.19271e-014
rhumerus -89.2817 -37.091 -5.09091
rradius 10.6347
rwrist 55.3216
rhand -12.2353 -34.5793
rfingers 7.12502
rthumb 13.8302 -64.0995
lclavicle 8.12222e-015 -1.19271e-014
lhumerus -14.2753 -12.6548 82.2313
lradius 57.3666
lwrist 9.4397
lhand -25.6601 -21.4299
lfingers 7.12502
lthumb 0.873993 8.54805
rfemur -51.3166 -5.70457 24.4106
rtibia 26.8716
rfoot -2.35371 0.667806
rtoes -23.9271
lfemur 1.89261 0.120458 -19.9867
ltibia 24.1301
lfoot -15.1628 -11.9106
ltoes -37.6752
212
root 1.25946 16.0031 1.51588 18.0996 6.85004 1.35974
lowerback -16.7195 -3.15474 0.033568
upperback -5.16274 -4.24135 1.81232
thorax 3.97856 -2.08711 1.05055
lowerneck -5.68574 -0.859853 -0.370602
upperneck 13.2145 -1.00811 -0.907826
head 4.89703 -0.569978 -0.279047
rclavicle -5.60635e-015 6.75868e-015
rhumerus -90.7576 -37.6429 -2.0864
rradius 10.56
rwrist 57.9122
rhand -12.1389 -34.341
rfingers 7.12502
rthumb 13.9232 -63.8548
lclavicle -5.60635e-015 6.75868e-015
lhumerus -15.3274 -11.9829 82.682
lradius 57.8675
lwrist 9.4214
lhand -25.6776 -21.8408
lfingers 7.12502
lthumb 0.857161 8.13726
rfemur -51.4219 -4.88239 24.4532
rtibia 28.3326
rfoot -1.83812 0.0930995
rtoes -28.4341
lfemur 0.68931 -0.0813943 -19.5049
ltibia 27.036
lfoot -10.9108 -13.6574
ltoes -32.724
213
root 1.26371 16.0084 1.751 18.2012 6.74857 0.92068
lowerback -16.821 -3.01123 0.80797
upperback -5.18356 -4.19032 2.0146
thorax 3.9699 -2.06078 0.83466
lowerneck -5.85313 -0.815984 -0.285841
upperneck 13.2904 -0.904285 -1.29668
head 4.94679 -0.539872 -0.408285
rclavicle 3.33648e-014 -3.97569e-015
rhumerus -91.7879 -38.2504 0.10543
rradius 10.5503
rwrist 59.918
rhand -11.9936 -34.4217
rfingers 7.12502
rthumb 14.0631 -63.9259
lclavicle 3.33648e-014 -3.97569e-015
lhumerus -16.4222 -11.5332 83.0675
lradius 58.4205
lwrist 9.73562
lhand -25.8715 -22.137
lfingers 7.12502
lthumb 0.669854 7.84167
rfemur -51.4658 -4.34619 24.6655
rtibia 29.729
rfoot -2.14992 -0.175429
rtoes -26.8904
lfemur -0.784891 -0.0119446 -18.9699
ltibia 30.2404
lfoot -6.55128 -15.0186
ltoes -27.736
214
root 1.26713 16.028 1.98734 18.2351 6.63285 0.52408
lowerback -16.8915 -2.87419 1.48331
upperback -5.13914 -4.13485 2.22239
thorax 4.02172 -2.03172 0.680668
lowerneck -5.8396 -0.771987 -0.473623
upperneck 13.0298 -0.809565 -1.42676
head 4.86522 -0.509243 -0.410881
rclavicle -4.81742e-014 8.74653e-015
rhumerus -91.446 -38.9019 0.0596606
rradius 10.6064
rwrist 60.2799
rhand -11.9924 -35.3831
rfingers 7.12502
rthumb 14.0644 -64.8872
lclavicle -4.81742e-014 8.74653e-015
lhumerus -17.5327 -11.1353 83.4687
lradius 58.9373
lwrist 10.0595
lhand -26.1686 -22.2976
lfingers 7.12502
lthumb 0.382874 7.68182
rfemur -51.4198 -3.95323 24.968
rtibia 31.1217
rfoot -2.84556 0.272429
rtoes -24.3615
lfemur -2.3606 0.0848467 -18.4828
ltibia 33.4882
lfoot -2.09233 -16.0034
ltoes -23.8075
